<svg width="26" height="26" viewBox="0 0 26 26" fill="none" xmlns="http://www.w3.org/2000/svg">
<g clip-path="url(#clip0_89_3524)">
<path d="M12.9998 8.04688C10.2681 8.04688 8.04587 10.2692 8.04587 13.0006C8.04587 15.7323 10.2681 17.9546 12.9998 17.9546C15.7313 17.9546 17.9536 15.7323 17.9536 13.0006C17.9536 10.2692 15.7313 8.04688 12.9998 8.04688ZM15.941 12.0677L12.392 15.6167C12.2431 15.7656 12.0477 15.8402 11.8525 15.8402C11.6573 15.8402 11.4621 15.7658 11.3131 15.6167L9.95691 14.2604C9.65897 13.9627 9.65897 13.4797 9.95691 13.1817C10.2547 12.8838 10.7377 12.8838 11.0356 13.1817L11.8525 13.9986L14.8623 10.989C15.16 10.6911 15.643 10.6911 15.941 10.989C16.2389 11.2868 16.2389 11.7698 15.941 12.0677Z" fill="#EF3E16"/>
<path d="M24.0443 7.05446L24.0435 7.03422C24.0322 6.78448 24.0247 6.52026 24.0201 6.22629C23.9989 4.79272 22.8593 3.6069 21.4255 3.52676C18.4361 3.35993 16.1236 2.38517 14.1477 0.459262L14.1309 0.443194C13.4864 -0.147731 12.5142 -0.147731 11.8695 0.443194L11.8527 0.459262C9.87675 2.38517 7.56423 3.35993 4.57489 3.52696C3.14131 3.6069 2.00152 4.79272 1.98029 6.22649C1.97593 6.51848 1.96819 6.7827 1.95688 7.03422L1.95569 7.08124C1.89757 10.1295 1.82537 13.9232 3.0945 17.3666C3.79234 19.2602 4.84923 20.9062 6.23559 22.2592C7.81457 23.8001 9.88271 25.0234 12.3825 25.895C12.4638 25.9234 12.5483 25.9464 12.6344 25.9637C12.7558 25.9879 12.878 26 13.0002 26C13.1224 26 13.2448 25.9879 13.366 25.9637C13.4521 25.9464 13.5372 25.9232 13.6189 25.8946C16.1157 25.0214 18.1816 23.7975 19.7592 22.2569C21.145 20.9034 22.2019 19.257 22.9003 17.363C24.1742 13.9093 24.1022 10.1085 24.0443 7.05446ZM12.9998 19.48C9.42687 19.48 6.52024 16.5733 6.52024 13.0004C6.52024 9.42748 9.42687 6.52086 12.9998 6.52086C16.5725 6.52086 19.4793 9.42748 19.4793 13.0004C19.4793 16.5733 16.5725 19.48 12.9998 19.48Z" fill="#EF3E16"/>
</g>
<defs>
<clipPath id="clip0_89_3524">
<rect width="26" height="26" fill="white"/>
</clipPath>
</defs>
</svg>
