<svg width="38" height="54" viewBox="0 0 38 54" fill="none" xmlns="http://www.w3.org/2000/svg">
<path opacity="0.2" fill-rule="evenodd" clip-rule="evenodd" d="M12.609 5.07366L9.80791 9.20666L8.77856 8.48069L7.74898 7.75455L7.12326 8.74536L6.49751 9.73596L3.55665 7.60687C1.93906 6.43577 0.569012 5.48624 0.511978 5.49672C0.454945 5.50721 0.64 7.0228 0.923203 8.86493L1.4382 12.214L4.55927 14.4872L7.68034 16.7604L8.35088 15.7972L9.02143 14.8341L9.97598 15.5064L10.9305 16.1787L13.736 12.0507L16.5415 7.92273L20.537 10.8042C22.7343 12.3889 24.627 13.669 24.7429 13.6485C24.8585 13.6281 25.2041 13.2292 25.5106 12.7621L26.0678 11.9127L26.9207 12.5134C27.3899 12.8437 27.862 13.0986 27.9699 13.0795C28.0779 13.0605 29.0751 11.7023 30.1859 10.0615L32.2055 7.07788L31.5837 3.55184L30.962 0.025803L28.8529 3.1261L26.7436 6.22643L25.7861 5.53472L24.8283 4.84304L24.1811 5.82158L23.5339 6.80012L19.4718 3.87041L15.41 0.940666L12.609 5.07366ZM4.41996 28.7468L6.60741 41.3754L9.71592 43.6093L12.8246 45.8429L11.8343 40.2265L10.8439 34.6099L11.5106 33.6521L12.1775 32.6943L13.1868 33.4232L14.1963 34.152L15.5386 41.4639L16.8809 48.7758L19.8601 50.9272L22.8392 53.0787L20.9534 42.3838L19.0676 31.6889L16.9849 30.1774L14.9022 28.6659L16.3423 26.5332L17.7824 24.4004L16.8398 19.0546C16.3214 16.1144 15.8276 13.7209 15.7426 13.7359C15.6577 13.7509 14.7165 15.051 13.6513 16.6251L11.7144 19.487L12.0261 21.2545L12.3378 23.022L10.9323 25.0813L9.52688 27.1406L8.92266 23.7139L8.31844 20.2872L5.39544 18.1815C3.78764 17.0235 2.41836 16.0854 2.35238 16.097C2.28659 16.1086 3.21686 21.8009 4.41996 28.7468ZM22.7896 32.7375L26.2689 52.4697L28.3345 49.434L30.4 46.3984L28.4776 35.4962L26.5553 24.5939L27.6057 25.3376L28.656 26.0813L29.166 25.2142C29.4465 24.7373 29.7573 24.3327 29.8568 24.3151C29.9605 24.2968 30.712 28.1081 31.6215 33.2661L33.2055 42.249L35.271 39.2134L37.3365 36.1777L35.0833 23.3991L32.8302 10.6207L30.1085 14.6249L27.3871 18.629L26.6183 18.1354C26.1955 17.8642 24.3784 16.5987 22.58 15.3236L19.3103 13.0055L22.7896 32.7375Z" fill="#472D1C"/>
</svg>
