<svg width="38" height="54" viewBox="0 0 38 54" fill="none" xmlns="http://www.w3.org/2000/svg">
<path opacity="0.2" fill-rule="evenodd" clip-rule="evenodd" d="M12.6346 5.46819L9.83351 9.60119L8.80417 8.87522L7.77458 8.14908L7.14887 9.13989L6.52311 10.1305L3.58225 8.0014C1.96466 6.8303 0.594616 5.88077 0.537583 5.89125C0.480549 5.90174 0.665604 7.41733 0.948808 9.25946L1.46381 12.6085L4.58488 14.8817L7.70594 17.1549L8.37649 16.1918L9.04703 15.2286L10.0016 15.9009L10.9561 16.5732L13.7616 12.4453L16.5671 8.31726L20.5626 11.1987C22.7599 12.7834 24.6527 14.0635 24.7685 14.0431C24.8841 14.0227 25.2297 13.6237 25.5362 13.1566L26.0934 12.3073L26.9463 12.908C27.4155 13.2383 27.8876 13.4931 27.9955 13.4741C28.1035 13.455 29.1007 12.0968 30.2115 10.456L32.2311 7.47241L31.6093 3.94637L30.9876 0.420334L28.8785 3.52063L26.7692 6.62096L25.8117 5.92925L24.8539 5.23758L24.2067 6.21611L23.5595 7.19465L19.4974 4.26494L15.4356 1.3352L12.6346 5.46819ZM4.44557 29.1413L6.63302 41.77L9.74153 44.0038L12.8502 46.2374L11.8599 40.621L10.8695 35.0044L11.5362 34.0467L12.2031 33.0889L13.2124 33.8177L14.2219 34.5466L15.5642 41.8584L16.9065 49.1703L19.8857 51.3218L22.8648 53.4732L20.979 42.7784L19.0932 32.0835L17.0105 30.5719L14.9278 29.0604L16.3679 26.9277L17.808 24.795L16.8654 19.4491C16.347 16.509 15.8532 14.1155 15.7682 14.1305C15.6833 14.1454 14.7421 15.4455 13.6769 17.0196L11.7401 19.8815L12.0517 21.649L12.3634 23.4165L10.9579 25.4758L9.55249 27.5352L8.94826 24.1084L8.34404 20.6817L5.42104 18.576C3.81324 17.418 2.44397 16.4799 2.37798 16.4915C2.3122 16.5031 3.24246 22.1954 4.44557 29.1413ZM22.8152 33.132L26.2945 52.8642L28.3601 49.8286L30.4256 46.7929L28.5033 35.8907L26.5809 24.9885L27.6313 25.7322L28.6816 26.4758L29.1916 25.6087C29.4721 25.1319 29.7829 24.7272 29.8824 24.7097C29.9861 24.6914 30.7376 28.5026 31.6471 33.6607L33.2311 42.6435L35.2966 39.6079L37.3622 36.5722L35.1089 23.7937L32.8558 11.0153L30.1341 15.0194L27.4127 19.0236L26.6439 18.5299C26.2211 18.2587 24.404 16.9932 22.6056 15.7182L19.3359 13.4L22.8152 33.132Z" fill="#472D1C"/>
</svg>
