<svg width="22" height="22" viewBox="0 0 22 22" fill="none" xmlns="http://www.w3.org/2000/svg">
<path d="M15.8308 4.5917L13.8848 1.25778C13.7922 1.0992 13.64 0.983697 13.4622 0.937863C13.2853 0.893863 13.0955 0.91953 12.9378 1.01395L6.98867 4.58345L15.8308 4.5917Z" fill="#EF3E16"/>
<path d="M2.75 5.50037C2.24583 5.50037 1.83333 5.08787 1.83333 4.58371C1.83333 4.07954 2.24583 3.66704 2.75 3.66704H5.83917L8.90083 1.83371H2.75C1.39333 1.83371 0.265833 2.82371 0.0458333 4.12537C0.0275 4.19871 0 4.27204 0 4.35454V18.3337C0 19.8462 1.2375 21.0837 2.75 21.0837H18.3333C19.3417 21.0837 20.1667 20.2587 20.1667 19.2504V17.417H17.875C15.6017 17.417 13.75 15.5654 13.75 13.292C13.75 11.0187 15.6017 9.16704 17.875 9.16704H20.1667V7.33371C20.1667 6.32537 19.3417 5.50037 18.3333 5.50037H2.75ZM17.4167 3.66704C17.4167 2.74121 16.7292 1.97121 15.8308 1.85204L17.4167 4.58371V3.66704Z" fill="#EF3E16"/>
<path d="M21.3125 10.5417H17.875C16.3588 10.5417 15.125 11.7756 15.125 13.2917C15.125 14.8079 16.3588 16.0417 17.875 16.0417H21.3125C21.692 16.0417 22 15.7337 22 15.3542V11.2292C22 10.8497 21.692 10.5417 21.3125 10.5417ZM17.875 14.2084C17.369 14.2084 16.9583 13.7977 16.9583 13.2917C16.9583 12.7857 17.369 12.3751 17.875 12.3751C18.381 12.3751 18.7917 12.7857 18.7917 13.2917C18.7917 13.7977 18.381 14.2084 17.875 14.2084Z" fill="#EF3E16"/>
</svg>
