<svg width="12" height="40" viewBox="0 0 12 40" fill="none" xmlns="http://www.w3.org/2000/svg">
<path fill-rule="evenodd" clip-rule="evenodd" d="M4.83307 24.4742L9.66615 29.1103L8.46094 30.2942L7.25544 31.4783L8.42481 32.5296L9.59388 33.5809L6.07755 36.9504C4.14341 38.8038 2.5615 40.3833 2.56207 40.4607C2.56264 40.538 4.61883 40.6459 7.13168 40.7006L11.7002 40.7998L15.4501 37.227L19.2 33.6541L18.0779 32.5504L16.9557 31.4466L18.0722 30.3486L19.1886 29.2505L14.3632 24.6097L19.5378 19.9689L14.3003 15.3885C16.9196 12.8694 19.0629 10.6799 19.0629 10.5231C19.0629 10.3665 18.6139 9.8202 18.0653 9.30945L17.0678 8.38085L18.0653 7.39978C18.6139 6.86006 19.0629 6.29901 19.0629 6.15281C19.0629 6.00661 17.4926 4.38225 15.5736 2.54336L12.084 -0.800194L7.25544 -0.800194L2.42692 -0.800194L6.05052 2.68792L9.67411 6.17631L8.53121 7.2738L7.38831 8.37156L8.53633 9.44827L9.68436 10.525L4.84218 15.1816L-9.16269e-07 19.838L4.83307 24.4742Z" fill="#BF2A09"/>
</svg>
