<svg width="300" height="497" viewBox="0 0 300 497" fill="none" xmlns="http://www.w3.org/2000/svg">
<path fill-rule="evenodd" clip-rule="evenodd" d="M117.733 33.8081L84.299 67.6163L75.7617 59.1856L67.2224 50.753L59.6409 58.9329L52.0594 67.1108L27.76 42.5134C14.3944 28.9838 3.00343 17.9181 2.44571 17.9221C1.88798 17.9261 1.10953 32.3095 0.715384 49.8873L0 81.8445L25.7656 108.076L51.5313 134.307L59.4911 126.458L67.451 118.608L75.3695 126.418L83.288 134.227L116.755 100.473L150.223 66.7187L183.255 100.033C201.421 118.355 217.211 133.348 218.342 133.348C219.471 133.348 223.411 130.207 227.094 126.37L233.791 119.392L240.866 126.37C244.758 130.207 248.804 133.348 249.858 133.348C250.912 133.348 262.627 122.364 275.888 108.94L300 84.5293V50.753V16.9767L274.845 42.3244L249.689 67.672L241.774 59.6772L233.858 51.6824L226.093 59.7131L218.328 67.7436L184.746 33.8718L151.167 0L117.733 33.8081ZM0.630641 240.323L0.258169 361.23L25.9706 387.075L51.685 412.918V359.118V305.316L59.5995 297.51L67.5161 289.705L75.8583 298.129L84.2024 306.554L84.705 376.682L85.2075 446.81L109.832 471.678L134.457 496.546V394.099V291.651L117.254 274.197L100.051 256.742L117.254 239.288L134.457 221.834V170.625C134.457 142.461 133.777 119.416 132.947 119.416C132.117 119.416 121.032 129.952 108.313 142.831L85.1878 166.246V183.177V200.108L68.4364 216.938L51.685 233.767V200.942V168.117L27.5157 143.767C14.221 130.374 2.81818 119.416 2.17374 119.416C1.53128 119.416 0.8356 173.823 0.630641 240.323ZM167.959 307.489V496.506L192.594 471.688L217.228 446.87V342.436V238.002L225.935 246.632L234.642 255.262L240.921 248.041C244.374 244.071 247.994 240.821 248.965 240.821C249.978 240.821 250.731 277.459 250.731 326.868V412.916L275.366 388.098L300 363.28V240.872V118.467L267.534 151.208L235.07 183.95L228.611 178.104C225.06 174.892 209.962 160.158 195.057 145.367L167.959 118.475V307.489Z" fill="#FAFAFB"/>
</svg>
