<svg width="44" height="73" viewBox="0 0 44 73" fill="none" xmlns="http://www.w3.org/2000/svg">
<path fill-rule="evenodd" clip-rule="evenodd" d="M17.2675 4.96808L12.3639 9.93616L11.1117 8.69728L9.85929 7.45812L8.74734 8.66014L7.63538 9.86188L4.07147 6.24732C2.11118 4.25915 0.440503 2.63305 0.358703 2.63364C0.276904 2.63422 0.162732 4.74786 0.104923 7.33089L0 12.027L3.77896 15.8817L7.55792 19.7363L8.72537 18.5828L9.89282 17.4294L11.0542 18.577L12.2156 19.7246L17.1241 14.7644L22.0327 9.80426L26.8773 14.6998C29.5417 17.3922 31.8576 19.5954 32.0235 19.5954C32.1891 19.5954 32.7669 19.1339 33.3071 18.57L34.2893 17.5446L35.327 18.57C35.8978 19.1339 36.4912 19.5954 36.6459 19.5954C36.8005 19.5954 38.5186 17.9813 40.4635 16.0086L44 12.4215V7.45812V2.49472L40.3106 6.21953L36.621 9.94435L35.4602 8.76952L34.2991 7.5947L33.1603 8.77479L32.0214 9.95488L27.0961 4.97744L22.1711 0L17.2675 4.96808ZM0.092494 35.3153L0.0378648 53.0825L3.80902 56.8804L7.58047 60.678V52.7721V44.866L8.74127 43.7189L9.90236 42.5719L11.1259 43.8099L12.3497 45.0479L12.4234 55.3531L12.4971 65.6584L16.1087 69.3127L19.7203 72.9671V57.9125V42.8579L17.1972 40.293L14.6742 37.7281L17.1972 35.1632L19.7203 32.5983V25.0732C19.7203 20.9346 19.6206 17.5481 19.4989 17.5481C19.3772 17.5481 17.7513 19.0964 15.8859 20.9889L12.4942 24.4298V26.9178V29.4058L10.0373 31.8788L7.58047 34.3519V29.5283V24.7047L4.03563 21.1264C2.08574 19.1584 0.413333 17.5481 0.318815 17.5481C0.224587 17.5481 0.122555 25.5432 0.092494 35.3153ZM24.6341 45.1853V72.9612L28.2471 69.3142L31.8602 65.6672V50.3207V34.9743L33.1372 36.2424L34.4141 37.5105L35.335 36.4495C35.8414 35.866 36.3724 35.3884 36.5149 35.3884C36.6635 35.3884 36.7739 40.7724 36.7739 48.0331V60.6777L40.387 57.0307L44 53.3837V35.396V17.4086L39.2383 22.2199L34.4769 27.0312L33.5297 26.1723C33.0088 25.7002 30.7945 23.5351 28.6084 21.3615L24.6341 17.4098V45.1853Z" fill="#EF3E16"/>
</svg>
