<svg width="320" height="530" viewBox="0 0 320 530" fill="none" xmlns="http://www.w3.org/2000/svg">
<path opacity="0.1" fill-rule="evenodd" clip-rule="evenodd" d="M125.582 36.062L89.9189 72.124L80.8125 63.1313L71.7039 54.1365L63.617 62.8617L55.5301 71.5848L29.6107 45.3477C15.354 30.9161 3.20366 19.1126 2.60875 19.1169C2.01385 19.1211 1.1835 34.4635 0.763076 53.2131L0 87.3008L27.4833 115.281L54.9667 143.261L63.4572 134.888L71.9478 126.515L80.3942 134.846L88.8405 143.176L124.539 107.171L160.238 71.1666L195.471 106.702C214.849 126.246 231.691 142.238 232.898 142.238C234.102 142.238 238.305 138.888 242.234 134.795L249.377 127.352L256.923 134.795C261.075 138.888 265.391 142.238 266.515 142.238C267.64 142.238 280.135 130.521 294.28 116.202L320 90.1646V54.1365V18.1085L293.168 45.146L266.335 72.1835L257.892 63.6557L249.448 55.1279L241.166 63.6939L232.883 72.2599L197.063 36.1299L161.244 0L125.582 36.062ZM0.672684 256.345L0.27538 385.312L27.702 412.88L55.1307 440.446V383.059V325.671L63.5728 317.344L72.0171 309.018L80.9155 318.005L89.8159 326.991L90.352 401.794L90.888 476.597L117.154 503.123L143.42 529.649V420.372V311.095L125.071 292.477L106.721 273.859L125.071 255.241L143.42 236.623V182C143.42 151.958 142.695 127.377 141.81 127.377C140.925 127.377 129.101 138.616 115.533 152.353L90.867 177.329V195.389V213.449L72.9988 231.4L55.1307 249.352V214.338V179.325L29.35 153.351C15.169 139.066 3.00606 127.377 2.31866 127.377C1.63336 127.377 0.891306 185.411 0.672684 256.345ZM179.157 327.989V529.607L205.433 503.134L231.71 476.661V365.265V253.869L240.997 263.074L250.285 272.279L256.982 264.577C260.665 260.342 264.527 256.875 265.563 256.875C266.644 256.875 267.447 295.956 267.447 348.66V440.444L293.723 413.971L320 387.498V256.93V126.365L285.369 161.289L250.741 196.213L243.852 189.978C240.064 186.551 223.96 170.835 208.061 155.058L179.157 126.373V327.989Z" fill="#472D1C"/>
</svg>
