<svg width="26" height="32" viewBox="0 0 26 32" fill="none" xmlns="http://www.w3.org/2000/svg">
<path d="M21.3479 22.6445L20.8375 22.8903L19.3522 24.7528C19.2121 24.9294 19.0338 25.072 18.8307 25.1698C18.6276 25.2676 18.4049 25.3181 18.1795 25.3175H15.7972L14.4512 25.9658L18.6474 31.483C18.7173 31.575 18.8076 31.6496 18.9111 31.7009C19.0147 31.7523 19.1287 31.779 19.2442 31.779C19.2683 31.779 19.2925 31.7778 19.3167 31.7755C19.444 31.7632 19.566 31.7185 19.6711 31.6458C19.7762 31.573 19.861 31.4746 19.9174 31.3599L21.2318 28.6864L24.1592 28.1338C24.2848 28.1101 24.4023 28.0547 24.5005 27.9728C24.5986 27.8909 24.6743 27.7853 24.7201 27.6659C24.766 27.5466 24.7806 27.4175 24.7625 27.291C24.7445 27.1644 24.6944 27.0445 24.617 26.9428L21.3479 22.6445Z" fill="#EF3E16"/>
<path d="M7.82056 25.3175C7.59514 25.318 7.37252 25.2675 7.16941 25.1697C6.96631 25.0719 6.788 24.9294 6.64787 24.7528L5.1625 22.8903L4.65218 22.6445L1.38306 26.9427C1.30566 27.0445 1.25555 27.1643 1.23749 27.2909C1.21944 27.4175 1.23404 27.5465 1.27991 27.6659C1.32578 27.7852 1.4014 27.8909 1.49958 27.9727C1.59776 28.0546 1.71524 28.1101 1.84087 28.1338L4.76831 28.6863L6.08262 31.3598C6.13902 31.4746 6.22382 31.573 6.32895 31.6457C6.43408 31.7185 6.55606 31.7631 6.68331 31.7755C6.70756 31.7778 6.73173 31.7789 6.75581 31.779C6.87138 31.779 6.98538 31.7522 7.08892 31.7009C7.19246 31.6495 7.28273 31.575 7.35268 31.483L11.5489 25.9657L10.2029 25.3175H7.82056Z" fill="#EF3E16"/>
<path d="M24.8012 13.0625L25.3694 10.573C25.3945 10.4632 25.3945 10.3491 25.3694 10.2392C25.3443 10.1294 25.2949 10.0266 25.2246 9.9385L23.6325 7.94213L23.0644 5.45269C23.0393 5.34285 22.9898 5.24007 22.9195 5.15198C22.8493 5.06389 22.7601 4.99276 22.6586 4.94388L20.358 3.83594L18.7659 1.83956C18.6957 1.75147 18.6065 1.68034 18.505 1.63146C18.4034 1.58257 18.2922 1.55719 18.1795 1.55719H15.6261L13.3255 0.449251C13.224 0.400378 13.1127 0.375 13 0.375C12.8874 0.375 12.7761 0.400378 12.6746 0.449251L10.374 1.55719H7.82054C7.70788 1.5572 7.59667 1.58259 7.49517 1.63147C7.39366 1.68036 7.30448 1.75148 7.23423 1.83956L5.64211 3.83594L3.34154 4.94375C3.24003 4.99263 3.15083 5.06376 3.08057 5.15184C3.01032 5.23993 2.96081 5.34272 2.93573 5.45256L2.36754 7.94213L0.775482 9.9385C0.705224 10.0266 0.655715 10.1294 0.630634 10.2392C0.605553 10.3491 0.605544 10.4632 0.630607 10.573L1.19886 13.0625L0.630607 15.552C0.605544 15.6619 0.605553 15.7759 0.630634 15.8858C0.655715 15.9956 0.705224 16.0984 0.775482 16.1865L2.36754 18.1829L2.93573 20.6723C2.96081 20.7822 3.01032 20.8849 3.08057 20.973C3.15083 21.0611 3.24003 21.1322 3.34154 21.1811L5.64211 22.2891L7.23423 24.2854C7.30448 24.3735 7.39366 24.4446 7.49517 24.4935C7.59667 24.5424 7.70788 24.5678 7.82054 24.5678H10.374L12.6746 25.6758C12.7761 25.7246 12.8874 25.75 13 25.75C13.1127 25.75 13.224 25.7246 13.3255 25.6758L15.6261 24.5678H18.1795C18.2922 24.5678 18.4034 24.5424 18.505 24.4935C18.6065 24.4447 18.6957 24.3735 18.7659 24.2854L20.358 22.2891L22.6586 21.1812C22.7601 21.1324 22.8493 21.0612 22.9195 20.9731C22.9898 20.8851 23.0393 20.7823 23.0644 20.6724L23.6325 18.183L25.2246 16.1866C25.2949 16.0985 25.3443 15.9957 25.3694 15.8859C25.3945 15.7761 25.3945 15.662 25.3694 15.5521L24.8012 13.0625ZM13 22.25C7.96879 22.25 3.87504 18.1566 3.87504 13.125C3.87504 8.09344 7.96879 4 13 4C18.0313 4 22.125 8.09375 22.125 13.125C22.125 18.1562 18.0316 22.25 13 22.25Z" fill="#EF3E16"/>
<path d="M13 4.75C8.382 4.75 4.625 8.507 4.625 13.125C4.625 17.743 8.382 21.5 13 21.5C17.618 21.5 21.375 17.743 21.375 13.125C21.375 8.507 17.618 4.75 13 4.75ZM13 8.52038C13.1483 8.52038 13.2933 8.56436 13.4167 8.64677C13.54 8.72918 13.6361 8.84632 13.6929 8.98336C13.7497 9.12041 13.7645 9.27121 13.7356 9.41669C13.7066 9.56218 13.6352 9.69582 13.5303 9.8007C13.4254 9.90559 13.2918 9.97703 13.1463 10.006C13.0008 10.0349 12.85 10.0201 12.713 9.96328C12.5759 9.90652 12.4588 9.81039 12.3764 9.68705C12.294 9.56372 12.25 9.41871 12.25 9.27038C12.25 9.07146 12.329 8.8807 12.4697 8.74004C12.6103 8.59939 12.8011 8.52038 13 8.52038ZM7.75 12C7.60166 12 7.45666 11.956 7.33332 11.8736C7.20999 11.7912 7.11386 11.6741 7.05709 11.537C7.00032 11.4 6.98547 11.2492 7.01441 11.1037C7.04335 10.9582 7.11478 10.8246 7.21967 10.7197C7.32456 10.6148 7.4582 10.5433 7.60368 10.5144C7.74917 10.4855 7.89997 10.5003 8.03701 10.5571C8.17406 10.6139 8.29119 10.71 8.3736 10.8333C8.45601 10.9567 8.5 11.1017 8.5 11.25C8.5 11.4489 8.42098 11.6397 8.28033 11.7803C8.13968 11.921 7.94891 12 7.75 12ZM17.6649 12.8414L16.9513 17.1233C16.9221 17.2984 16.8317 17.4575 16.6962 17.5723C16.5608 17.687 16.389 17.75 16.2114 17.75H9.78856C9.61102 17.75 9.43924 17.687 9.30377 17.5723C9.16831 17.4575 9.07794 17.2984 9.04875 17.1233L8.33506 12.8414C8.31109 12.6977 8.3295 12.5501 8.38804 12.4167C8.44657 12.2833 8.54269 12.1698 8.66467 12.0901C8.78664 12.0104 8.92918 11.968 9.07487 11.968C9.22056 11.968 9.3631 12.0104 9.48506 12.0901L11.0226 13.0943L12.3594 10.9006C12.4264 10.7907 12.5205 10.6999 12.6326 10.6369C12.7448 10.574 12.8712 10.5409 12.9999 10.5409C13.1285 10.5409 13.255 10.574 13.3671 10.6369C13.4793 10.6999 13.5734 10.7907 13.6403 10.9006L14.9772 13.0943L16.5147 12.0901C16.6367 12.0104 16.7793 11.968 16.9249 11.968C17.0706 11.968 17.2132 12.0104 17.3351 12.0901C17.4571 12.1698 17.5532 12.2833 17.6118 12.4167C17.6703 12.5501 17.6887 12.6977 17.6647 12.8414H17.6649ZM18.25 12C18.1017 12 17.9567 11.956 17.8333 11.8736C17.71 11.7912 17.6139 11.6741 17.5571 11.537C17.5003 11.4 17.4855 11.2492 17.5144 11.1037C17.5434 10.9582 17.6148 10.8246 17.7197 10.7197C17.8246 10.6148 17.9582 10.5433 18.1037 10.5144C18.2492 10.4855 18.4 10.5003 18.537 10.5571C18.6741 10.6139 18.7912 10.71 18.8736 10.8333C18.956 10.9567 19 11.1017 19 11.25C19 11.4489 18.921 11.6397 18.7803 11.7803C18.6397 11.921 18.4489 12 18.25 12Z" fill="#EF3E16"/>
</svg>
