<svg width="20" height="21" viewBox="0 0 20 21" fill="none" xmlns="http://www.w3.org/2000/svg">
<path d="M17.2998 8.61897C17.3245 5.72332 14.8582 3.0688 11.8022 2.70172C11.7414 2.6945 11.6752 2.68355 11.6051 2.67192C11.4538 2.64685 11.2973 2.62109 11.1395 2.62109C10.5132 2.62109 10.3457 3.06106 10.3016 3.32348C10.2588 3.57861 10.2997 3.79285 10.4229 3.96057C10.6304 4.24261 10.9953 4.29267 11.2885 4.33282C11.3744 4.3447 11.4555 4.35573 11.5233 4.37097C14.2691 4.98451 15.1936 5.94908 15.6455 8.67147C15.6565 8.73798 15.6615 8.81998 15.6668 8.9069C15.6865 9.23234 15.7275 9.90938 16.4554 9.90938H16.4555C16.5161 9.90938 16.5812 9.90417 16.649 9.89382C17.3269 9.79081 17.3056 9.17193 17.2954 8.87457C17.2925 8.79081 17.2898 8.71159 17.2969 8.65892C17.2987 8.64564 17.2997 8.63228 17.2998 8.61897Z" fill="#0A0A0A"/>
<path d="M10.9617 1.63848C11.043 1.64434 11.12 1.64995 11.1841 1.65978C15.6929 2.35319 17.7664 4.4894 18.341 9.03343C18.3508 9.11069 18.3523 9.20488 18.3539 9.30464C18.3596 9.65965 18.3714 10.3982 19.1646 10.4135L19.1892 10.4137C19.438 10.4137 19.6358 10.3387 19.7774 10.1906C20.0243 9.93238 20.0071 9.54873 19.9931 9.24038C19.9898 9.16472 19.9865 9.09348 19.9873 9.03111C20.0446 4.38374 16.0218 0.16952 11.3786 0.0128364C11.3594 0.0121945 11.341 0.0132375 11.3224 0.0158449C11.3133 0.0171686 11.2964 0.0188534 11.2674 0.0188534C11.2212 0.0188534 11.1642 0.014842 11.1038 0.0107505C11.0307 0.00573625 10.9479 0 10.864 0C10.1246 0 9.98401 0.525569 9.96604 0.838857C9.92457 1.56295 10.625 1.61389 10.9617 1.63848Z" fill="#0A0A0A"/>
<path d="M18.1234 14.9057C18.0276 14.8325 17.9284 14.7567 17.8357 14.6819C17.3434 14.2858 16.8197 13.9206 16.3131 13.5674C16.208 13.4942 16.1029 13.4209 15.9982 13.3475C15.3494 12.8917 14.7661 12.6703 14.215 12.6703C13.4727 12.6703 12.8256 13.0804 12.2915 13.8891C12.0549 14.2476 11.7678 14.4219 11.414 14.4219C11.2048 14.4219 10.967 14.3622 10.7075 14.2444C8.61329 13.2947 7.1179 11.8387 6.26279 9.9167C5.84942 8.98775 5.98344 8.38055 6.71094 7.88635C7.12407 7.60595 7.89305 7.08395 7.83858 6.08436C7.77688 4.94923 5.27227 1.53367 4.21696 1.14577C3.77017 0.981464 3.30072 0.97994 2.81916 1.14196C1.60596 1.54979 0.735374 2.26602 0.301264 3.21307C-0.118244 4.12818 -0.0993105 5.20266 0.35606 6.32039C1.67243 9.55203 3.52315 12.3696 5.85704 14.6947C8.14152 16.9707 10.9493 18.8351 14.2024 20.2359C14.4956 20.362 14.8031 20.4308 15.0277 20.481C15.1042 20.4982 15.1703 20.5129 15.2185 20.5261C15.245 20.5333 15.2722 20.5372 15.2996 20.5375L15.3253 20.5376C15.3254 20.5376 15.3253 20.5376 15.3255 20.5376C16.8555 20.5376 18.6926 19.1395 19.2569 17.5455C19.7512 16.1498 18.8486 15.46 18.1234 14.9057Z" fill="#0A0A0A"/>
<path d="M11.6384 5.32868C11.3764 5.3353 10.8313 5.34882 10.64 5.90407C10.5505 6.16353 10.5612 6.38881 10.6719 6.57365C10.8343 6.84486 11.1454 6.92797 11.4284 6.97358C12.4548 7.13829 12.9819 7.70582 13.0873 8.75952C13.1363 9.25083 13.4671 9.59393 13.8919 9.59393H13.892C13.9234 9.59393 13.9555 9.59208 13.9874 9.58819C14.4983 9.52742 14.746 9.15203 14.7236 8.47263C14.7318 7.76354 14.3607 6.95854 13.7296 6.31732C13.0962 5.67414 12.3328 5.31191 11.6384 5.32868Z" fill="#0A0A0A"/>
</svg>
