<svg width="34" height="35" viewBox="0 0 34 35" fill="none" xmlns="http://www.w3.org/2000/svg">
<path d="M29.4096 14.6534C29.4516 9.73083 25.259 5.21814 20.0637 4.5941C19.9604 4.58183 19.8478 4.56321 19.7286 4.54343C19.4714 4.50081 19.2055 4.45703 18.9371 4.45703C17.8723 4.45703 17.5877 5.20498 17.5128 5.6511C17.4399 6.08481 17.5094 6.44903 17.719 6.73414C18.0716 7.21361 18.692 7.29872 19.1904 7.36698C19.3365 7.38716 19.4743 7.40592 19.5897 7.43183C24.2574 8.47485 25.8291 10.1146 26.5973 14.7427C26.616 14.8558 26.6245 14.9952 26.6335 15.1429C26.667 15.6962 26.7368 16.8471 27.9742 16.8471H27.9744C28.0774 16.8471 28.1881 16.8383 28.3033 16.8207C29.4557 16.6456 29.4195 15.5935 29.4022 15.088C29.3973 14.9456 29.3927 14.8109 29.4047 14.7214C29.4079 14.6988 29.4095 14.6761 29.4096 14.6534Z" fill="#7F40BD"/>
<path d="M18.6348 2.78543C18.773 2.79538 18.9039 2.80493 19.0129 2.82164C26.6778 4.00043 30.2028 7.632 31.1797 15.3569C31.1963 15.4882 31.1988 15.6483 31.2016 15.8179C31.2113 16.4214 31.2314 17.677 32.5798 17.703L32.6216 17.7034C33.0445 17.7034 33.3809 17.5759 33.6215 17.3241C34.0412 16.8851 34.012 16.2329 33.9883 15.7087C33.9826 15.5801 33.977 15.459 33.9784 15.3529C34.0759 7.45237 27.2371 0.288185 19.3436 0.0218219C19.3109 0.0207308 19.2797 0.0225038 19.2481 0.0269364C19.2326 0.0291868 19.2038 0.0320509 19.1546 0.0320509C19.0759 0.0320509 18.9791 0.0252315 18.8764 0.0182758C18.7522 0.00975165 18.6114 0 18.4688 0C17.2117 0 16.9728 0.893469 16.9422 1.42606C16.8717 2.65702 18.0625 2.74362 18.6348 2.78543Z" fill="#7F40BD"/>
<path d="M30.8099 25.3395C30.6469 25.215 30.4784 25.0862 30.3207 24.9591C29.4838 24.2856 28.5935 23.6649 27.7324 23.0645C27.5537 22.9401 27.375 22.8155 27.197 22.6905C26.094 21.9158 25.1024 21.5393 24.1656 21.5393C22.9037 21.5393 21.8036 22.2365 20.8956 23.6113C20.4933 24.2208 20.0053 24.5171 19.4038 24.5171C19.0482 24.5171 18.644 24.4156 18.2028 24.2153C14.6426 22.6009 12.1005 20.1256 10.6468 16.8582C9.94404 15.279 10.1719 14.2468 11.4086 13.4066C12.111 12.9299 13.4182 12.0426 13.3256 10.3432C13.2207 8.4135 8.96288 2.60704 7.16884 1.94761C6.40931 1.66829 5.61124 1.6657 4.79258 1.94114C2.73014 2.63446 1.25014 3.85205 0.512151 5.46203C-0.201016 7.01772 -0.168828 8.84435 0.605303 10.7445C2.84314 16.2383 5.98937 21.0282 9.957 24.9808C13.8406 28.8501 18.6139 32.0195 24.1441 34.4008C24.6426 34.6153 25.1654 34.7323 25.5472 34.8176C25.6773 34.8469 25.7896 34.8718 25.8715 34.8943C25.9165 34.9066 25.9629 34.9132 26.0094 34.9136L26.0532 34.9138C26.0533 34.9138 26.0532 34.9138 26.0534 34.9138C28.6544 34.9138 31.7776 32.537 32.7368 29.8272C33.5771 27.4546 32.0428 26.2818 30.8099 25.3395Z" fill="#7F40BD"/>
<path d="M19.7854 9.05954C19.3401 9.07079 18.4132 9.09378 18.0881 10.0377C17.936 10.4788 17.9542 10.8618 18.1423 11.176C18.4184 11.637 18.9473 11.7783 19.4284 11.8559C21.1732 12.1359 22.0693 13.1007 22.2485 14.892C22.3318 15.7272 22.8942 16.3105 23.6164 16.3105H23.6165C23.6699 16.3105 23.7244 16.3073 23.7788 16.3007C24.6473 16.1974 25.0684 15.5593 25.0303 14.4043C25.0442 13.1988 24.4134 11.8303 23.3404 10.7402C22.2636 9.64682 20.9658 9.03104 19.7854 9.05954Z" fill="#7F40BD"/>
</svg>
