<svg width="34" height="34" viewBox="0 0 34 34" fill="none" xmlns="http://www.w3.org/2000/svg">
<path d="M17.0042 0H16.9958C7.62238 0 0 7.6245 0 17C0 20.7188 1.1985 24.1655 3.23638 26.9641L1.11775 33.2796L7.65213 31.1908C10.3403 32.9715 13.5469 34 17.0042 34C26.3776 34 34 26.3734 34 17C34 7.62663 26.3776 0 17.0042 0Z" fill="#4CAF50"/>
<path d="M26.8964 24.0061C26.4863 25.1643 24.8585 26.1248 23.5602 26.4053C22.6719 26.5944 21.5117 26.7453 17.6059 25.126C12.61 23.0563 9.39279 17.9796 9.14204 17.6503C8.90192 17.3209 7.12329 14.9621 7.12329 12.5226C7.12329 10.0831 8.36217 8.89527 8.86154 8.38527C9.27167 7.96664 9.94954 7.77539 10.5998 7.77539C10.8102 7.77539 10.9993 7.78602 11.1693 7.79452C11.6687 7.81577 11.9194 7.84552 12.2488 8.63389C12.6589 9.62202 13.6577 12.0615 13.7767 12.3123C13.8978 12.563 14.0189 12.903 13.8489 13.2324C13.6895 13.5724 13.5493 13.7233 13.2985 14.0123C13.0478 14.3013 12.8098 14.5223 12.559 14.8325C12.3295 15.1024 12.0703 15.3914 12.3593 15.8908C12.6483 16.3795 13.647 18.0094 15.1175 19.3184C17.0152 21.0078 18.5537 21.5475 19.104 21.777C19.5142 21.947 20.0029 21.9066 20.3025 21.5879C20.6829 21.1778 21.1525 20.4978 21.6307 19.8284C21.9707 19.3481 22.3999 19.2886 22.8504 19.4586C23.3094 19.618 25.7383 20.8186 26.2377 21.0673C26.737 21.318 27.0664 21.437 27.1875 21.6474C27.3065 21.8578 27.3065 22.8459 26.8964 24.0061Z" fill="#FAFAFA"/>
</svg>
